<?xml version="1.0" encoding="UTF-8"?>
<svg id="Layer_1" data-name="Layer 1" xmlns="http://www.w3.org/2000/svg" viewBox="0 0 3601.04 3950.35">
  <defs>
    <style>
      .cls-1 {
        fill: #fff;
      }

      .cls-1, .cls-2, .cls-3, .cls-4 {
        stroke: #000;
        stroke-linecap: round;
        stroke-linejoin: round;
        stroke-width: 40px;
      }

      .cls-2 {
        fill: #f9debd;
      }

      .cls-4 {
        fill: #cb0920;
      }

      .cls-5 {
        fill: #62d388;
        stroke: #37776c;
        stroke-miterlimit: 10;
        stroke-width: 60px;
      }
    </style>
  </defs>
  <ellipse class="cls-5" cx="1800.52" cy="2173.97" rx="1770.52" ry="1746.38"/>
  <g>
    <ellipse class="cls-2" cx="1787.51" cy="1790.51" rx="943.9" ry="809.06"/>
    <path class="cls-4" d="M2805.31,1129.29l494.11,58.03c-34.46-193.5-123.19-435.08-337.94-667.89-132.52-143.66-329.38-357.08-714.3-453.49-516.74-129.42-967.72,53.39-1020.43,75.58-441.18,185.76-696.12,566.54-658.97,974.73l2237.54,13.04c6.93-57.21,14.65-227.38-125.51-374.69-199.52-209.7-514.42-179.4-534.66-177.15"/>
    <path class="cls-1" d="M866.81,1492.24c-4.2,63.3-19.41,389.44,221.38,647.07,252.07,269.7,596.07,262.51,701.18,260.31,99.1-2.07,364.14-7.61,593.31-208.25,280.8-245.85,290.42-594.34,291.1-653.96,97.88-60.23,195.76-120.46,293.63-180.7,18.24,123.55,41.47,299.22,60.17,511.11,36.65,415.38,53.23,627.1-3.42,821.53-24.44,83.89-111.81,369.18-383.98,587.27-303.86,243.47-643.08,246.95-790.55,248.46-172.04,1.76-482.54-25.75-790.55-225.87-102.25-66.43-337.27-223.36-474.33-519.5-115-248.49-105.51-475.04-89.87-848.65,8.9-212.49,34.28-387.2,55.7-506.58,105.41,22.59,210.81,45.17,316.22,67.76Z"/>
    <path class="cls-1" d="M2965.09,1645.12c-43.3,32.17-97.7,51.39-156.6,51.39-260.76-63.69-609.95-123.62-1023.97-125.69-434.53-2.17-799.58,60.11-1068.07,125.69-17.16-.05-107.24-1.94-180.12-71.17-46.22-43.91-74.92-104.48-74.92-171.1v-269.59c0-133.25,114.76-242.27,255.03-242.27,279.72-45.3,609.57-80.05,979.86-83.79,426.17-4.3,801.74,33.53,1112.17,83.79,17.16.05,107.24,1.94,180.12,71.17,29.23,27.77,51.45,62.2,63.84,100.61"/>
    <ellipse class="cls-3" cx="2112.88" cy="1853.87" rx="41.4" ry="44.93"/>
    <ellipse class="cls-3" cx="1480.44" cy="1853.87" rx="41.4" ry="44.93"/>
    <g>
      <g>
        <path class="cls-1" d="M1815.47,2241.52c-204.37-155.89-341.93-164.62-431.9-140.03-180.71,49.39-244.85,253.8-453.11,276.87-83.77,9.28-155.53-14.69-202.26-35.78,26.08,59.23,111.17,231.47,305.74,332.03,53.91,27.86,294.06,142.14,538.1,21.16,139.01-68.91,213.05-181.33,243.43-234.55"/>
        <path class="cls-1" d="M1815.47,2241.52c204.37-155.89,341.93-164.62,431.9-140.03,180.71,49.39,244.85,253.8,453.11,276.87,83.77,9.28,155.53-14.69,202.26-35.78-26.08,59.23-111.17,231.47-305.74,332.03-53.91,27.86-294.06,142.14-538.1,21.16-139.01-68.91-213.05-181.33-243.43-234.55"/>
      </g>
      <ellipse class="cls-2" cx="1813.13" cy="2155.17" rx="160.46" ry="105.03"/>
    </g>
  </g>
  <ellipse class="cls-1" cx="3190.25" cy="1501.29" rx="382.66" ry="410.91"/>
</svg>