<?xml version="1.0" encoding="UTF-8"?>
<svg id="Layer_1" data-name="Layer 1" xmlns="http://www.w3.org/2000/svg" viewBox="0 0 236.24 21.7">
  <defs>
    <style>
      .cls-1 {
        fill: #37776c;
      }

      .cls-2 {
        fill: none;
        stroke: #ed1c24;
        stroke-miterlimit: 10;
      }
    </style>
  </defs>
  <path class="cls-1" d="M7.17,21.68c-1.26,0-2.54-.15-3.84-.46-1.3-.31-2.4-.72-3.3-1.25l1.08-4.89c1.16.62,2.24,1.03,3.25,1.21,1.01.19,1.94.29,2.81.29.8,0,1.4-.13,1.81-.39.41-.26.61-.61.61-1.05,0-.4-.23-.71-.69-.94-.46-.23-1.06-.45-1.79-.65-.73-.2-1.5-.43-2.32-.71-.82-.27-1.6-.63-2.33-1.08-.73-.45-1.33-1.05-1.78-1.8-.46-.75-.69-1.7-.69-2.83,0-1.44.35-2.69,1.05-3.74.7-1.05,1.7-1.86,3-2.43C5.35.39,6.88.11,8.64.11c1.18,0,2.33.15,3.46.46,1.13.31,2.04.73,2.72,1.25l-1.02,4.41c-1.02-.42-1.94-.72-2.75-.91s-1.58-.29-2.29-.29c-.84,0-1.48.12-1.92.36-.44.24-.66.56-.66.96s.23.69.69.93c.46.24,1.05.47,1.77.69.72.22,1.49.47,2.31.75.82.28,1.59.65,2.31,1.11.72.46,1.31,1.06,1.77,1.8.46.74.69,1.67.69,2.79,0,2.32-.76,4.11-2.27,5.37-1.51,1.26-3.6,1.89-6.28,1.89Z"/>
  <path class="cls-1" d="M17.76,21.2V.53h6.99c3.4,0,5.96.55,7.69,1.67,1.73,1.11,2.6,2.75,2.6,4.9,0,1.5-.38,2.77-1.12,3.83-.75,1.05-1.81,1.85-3.17,2.4-1.36.55-2.96.83-4.8.83h-1.56v7.05h-6.63ZM25.68,9.98c1.06,0,1.88-.22,2.46-.66s.87-1.1.87-1.98c0-.82-.28-1.44-.84-1.85-.56-.41-1.37-.61-2.43-.61h-1.35v5.1h1.29Z"/>
  <path class="cls-1" d="M37.17,21.2V.56h6.78v20.64h-6.78Z"/>
  <path class="cls-1" d="M62.88,21.68c-1.44,0-2.63-.21-3.57-.64-.94-.43-1.69-1.02-2.25-1.79-.56-.76-.98-1.65-1.26-2.67-.28-1.02-.47-2.12-.57-3.3h-1.41v7.92h-6.57V.56h8.49c3.28,0,5.64.58,7.09,1.73,1.45,1.15,2.18,2.71,2.18,4.67,0,1.18-.32,2.23-.96,3.17-.64.93-1.67,1.71-3.09,2.33.08.44.15.8.21,1.08.06.28.15.59.27.93.26.72.58,1.22.98,1.5s.92.42,1.6.42c.44,0,.88-.06,1.32-.18l.36,4.92c-.4.16-.83.29-1.27.41-.45.11-.97.16-1.55.16ZM53.82,9.17h1.14c1.48,0,2.52-.17,3.14-.5.61-.33.92-.9.92-1.7,0-.68-.25-1.17-.75-1.48-.5-.31-1.29-.46-2.37-.46h-2.07v4.14Z"/>
  <path class="cls-1" d="M67.53,21.2V.56h6.78v20.64h-6.78Z"/>
  <path class="cls-1" d="M80.85,21.2V5.3h-4.65V.56h16.29v4.74h-4.65v15.9h-6.99Z"/>
  <path class="cls-1" d="M146.15,21.68c-1.26,0-2.54-.15-3.84-.46-1.3-.31-2.4-.72-3.3-1.25l1.08-4.89c1.16.62,2.25,1.03,3.25,1.21,1.01.19,1.95.29,2.81.29.8,0,1.4-.13,1.81-.39s.62-.61.62-1.05c0-.4-.23-.71-.69-.94-.46-.23-1.05-.45-1.79-.65-.73-.2-1.5-.43-2.32-.71-.82-.27-1.6-.63-2.33-1.08-.73-.45-1.33-1.05-1.79-1.8s-.69-1.7-.69-2.83c0-1.44.35-2.69,1.05-3.74.7-1.05,1.7-1.86,3-2.43,1.3-.57,2.83-.85,4.59-.85,1.18,0,2.33.15,3.46.46,1.13.31,2.04.73,2.71,1.25l-1.02,4.41c-1.02-.42-1.94-.72-2.75-.91-.81-.19-1.58-.29-2.29-.29-.84,0-1.48.12-1.92.36-.44.24-.66.56-.66.96s.23.69.69.93c.46.24,1.05.47,1.77.69.72.22,1.49.47,2.31.75.82.28,1.59.65,2.31,1.11.72.46,1.31,1.06,1.77,1.8.46.74.69,1.67.69,2.79,0,2.32-.76,4.11-2.27,5.37s-3.6,1.89-6.28,1.89Z"/>
  <path class="cls-1" d="M155.21,21.2l5.7-20.64h9.72l5.97,20.64h-7.35l-.78-3.96h-5.34l-.87,3.96h-7.05ZM163.76,13.55h3.99l-1.95-9.03-2.04,9.03Z"/>
  <path class="cls-1" d="M178.22,21.2V.56h6l8.1,10.95V.56h5.52v20.64h-6l-8.1-10.5v10.5h-5.52Z"/>
  <path class="cls-1" d="M204.38,21.2V5.3h-4.65V.56h16.29v4.74h-4.65v15.9h-6.99Z"/>
  <path class="cls-1" d="M214.85,21.2l5.7-20.64h9.72l5.97,20.64h-7.35l-.78-3.96h-5.34l-.87,3.96h-7.05ZM223.4,13.55h3.99l-1.95-9.03-2.04,9.03Z"/>
  <path class="cls-1" d="M110.76,16.15c-1.09,0-2.05-.23-2.88-.69s-1.48-1.09-1.94-1.91c-.46-.81-.7-1.74-.7-2.79s.23-2,.7-2.81c.47-.81,1.11-1.44,1.94-1.9s1.79-.69,2.88-.69,2.05.23,2.88.68,1.48,1.09,1.94,1.9.7,1.75.7,2.82-.23,1.98-.7,2.79c-.46.81-1.11,1.45-1.94,1.91s-1.79.69-2.88.69ZM110.76,13.41c.63,0,1.15-.25,1.55-.74.41-.49.61-1.13.61-1.93,0-.54-.09-1.01-.28-1.42s-.44-.73-.77-.97c-.32-.23-.7-.35-1.13-.35-.63,0-1.15.25-1.54.76-.4.5-.6,1.17-.6,1.99s.2,1.45.6,1.93c.4.49.92.74,1.56.74Z"/>
  <path class="cls-1" d="M117.5,15.91V5.59h7.11v2.28h-3.88v2.08h3.6v2.01h-3.6v3.95h-3.22Z"/>
  <line class="cls-2" x1="99.35" y1=".5" x2="132.02" y2=".5"/>
  <line class="cls-2" x1="99.35" y1="21.2" x2="132.02" y2="21.2"/>
</svg>